<?xml version="1.0" encoding="utf-8"?>
<!-- Generator: Adobe Illustrator 21.0.0, SVG Export Plug-In . SVG Version: 6.00 Build 0)  -->
<svg version="1.1" id="Layer_1" xmlns="http://www.w3.org/2000/svg" xmlns:xlink="http://www.w3.org/1999/xlink" x="0px" y="0px"
	 viewBox="0 0 519.5 51.5" style="enable-background:new 0 0 519.5 51.5;" xml:space="preserve">
<style type="text/css">
	.st0{fill:#8DC63F;}
	.st1{fill:#c2b59b;}
</style>
<g>
	<path class="st0" d="M9.3,37.3c-1.7,0-3.4-0.3-5.1-0.8S1.1,35.1,0,34l1.3-2c1.2,1,2.5,1.8,3.8,2.3s2.7,0.8,4.1,0.8
		c1.8,0,3.2-0.4,4.3-1.1s1.6-1.7,1.6-3.1c0-0.6-0.1-1.1-0.4-1.6c-0.3-0.4-0.7-0.8-1.3-1.1c-0.6-0.3-1.2-0.6-2.1-0.8
		c-0.8-0.2-1.8-0.5-2.9-0.7c-1.3-0.3-2.4-0.6-3.3-0.9c-0.9-0.3-1.7-0.7-2.3-1.1c-0.6-0.4-1.1-0.9-1.4-1.5S1,21.9,1,21
		c0-1.1,0.2-2.1,0.7-2.9c0.4-0.8,1-1.6,1.8-2.1c0.8-0.6,1.6-1,2.6-1.3s2.1-0.4,3.2-0.4c1.7,0,3.2,0.3,4.6,0.8
		c1.4,0.6,2.5,1.3,3.4,2.2L15.9,19c-0.8-0.8-1.8-1.5-3-1.9s-2.4-0.6-3.7-0.6c-0.8,0-1.5,0.1-2.1,0.2c-0.7,0.2-1.2,0.4-1.7,0.7
		c-0.5,0.3-0.9,0.8-1.2,1.3s-0.4,1.1-0.4,1.8c0,0.6,0.1,1.1,0.3,1.4s0.5,0.7,1,1s1,0.5,1.7,0.7s1.5,0.4,2.5,0.7
		c1.4,0.3,2.7,0.7,3.7,1c1.1,0.3,2,0.7,2.7,1.2s1.3,1,1.6,1.7c0.4,0.7,0.6,1.4,0.6,2.4c0,2-0.8,3.7-2.3,4.8S11.9,37.3,9.3,37.3z"/>
	<path class="st0" d="M41.3,36.9h-2.9V24.5c0-2.5-0.4-4.4-1.3-5.7c-0.9-1.2-2.1-1.9-3.8-1.9c-0.8,0-1.6,0.2-2.4,0.5
		c-0.8,0.3-1.6,0.8-2.3,1.3c-0.7,0.6-1.3,1.2-1.8,2s-0.9,1.6-1.2,2.5v13.6h-2.9v-31h2.9v13.9c0.9-1.7,2.1-3,3.7-4
		c1.6-1,3.2-1.4,5.1-1.4c1.3,0,2.4,0.2,3.2,0.7c0.9,0.5,1.6,1.1,2.2,2c0.6,0.8,1,1.8,1.2,3c0.3,1.2,0.4,2.5,0.4,3.9L41.3,36.9
		L41.3,36.9z"/>
	<path class="st0" d="M54.3,37.3c-2.4,0-4.2-0.8-5.4-2.4c-1.2-1.6-1.8-4-1.8-7.2v-13H50v12.5c0,5,1.7,7.5,5.1,7.5
		c0.8,0,1.7-0.1,2.5-0.4s1.6-0.7,2.3-1.2c0.7-0.5,1.3-1.2,1.9-1.9c0.6-0.7,1-1.6,1.3-2.5V14.8H66v18.4c0,0.8,0.3,1.2,1,1.2v2.5
		C66.7,37,66.4,37,66.2,37c-0.2,0-0.4,0-0.4,0c-0.7,0-1.2-0.3-1.7-0.7c-0.4-0.5-0.6-1.1-0.6-1.8V32c-1,1.7-2.3,3.1-3.9,4
		C58,36.8,56.2,37.3,54.3,37.3z"/>
</g>
<g>
	<path class="st1" d="M149.5,36.9h-2.1V24.6c0-2.8-0.4-4.9-1.3-6.2c-0.9-1.3-2.2-2-4-2c-0.9,0-1.8,0.2-2.6,0.5s-1.6,0.8-2.3,1.4
		s-1.3,1.3-1.8,2.2c-0.5,0.8-0.9,1.8-1.2,2.8v13.6h-2V24.6c0-2.8-0.4-4.9-1.3-6.2c-0.9-1.3-2.2-2-4-2c-0.9,0-1.8,0.2-2.6,0.5
		s-1.6,0.8-2.2,1.4s-1.3,1.3-1.8,2.2c-0.5,0.8-0.9,1.8-1.2,2.8V37H117V14.9h2v5.3c0.9-1.8,2.1-3.2,3.6-4.2s3.1-1.5,4.9-1.5
		c1.9,0,3.4,0.6,4.5,1.7c1.2,1.1,1.9,2.5,2.1,4.3c2.1-4,5-6,8.7-6c2.4,0,4.1,0.9,5.2,2.6c1,1.7,1.6,4.1,1.6,7.2L149.5,36.9
		L149.5,36.9z"/>
	<path class="st1" d="M161.4,37.3c-1,0-2-0.2-2.8-0.5c-0.9-0.4-1.7-0.8-2.3-1.4c-0.7-0.6-1.2-1.3-1.6-2.2c-0.4-0.8-0.6-1.7-0.6-2.7
		s0.2-1.8,0.7-2.6c0.5-0.8,1.1-1.5,1.9-2.1c0.8-0.6,1.8-1,2.9-1.4c1.1-0.3,2.4-0.5,3.7-0.5c1.2,0,2.4,0.1,3.6,0.3
		c1.2,0.2,2.3,0.5,3.3,0.9v-2.2c0-2.1-0.6-3.8-1.8-5s-2.8-1.8-4.8-1.8c-1.1,0-2.2,0.2-3.4,0.7s-2.4,1.1-3.7,2l-0.8-1.4
		c2.8-1.9,5.5-2.9,8.1-2.9c2.7,0,4.8,0.8,6.3,2.3s2.3,3.7,2.3,6.4V34c0,0.7,0.3,1.1,0.9,1.1V37c-0.1,0-0.3,0-0.4,0.1
		c-0.2,0-0.3,0-0.4,0c-0.6,0-1-0.2-1.4-0.6c-0.3-0.4-0.5-0.8-0.6-1.4v-1.8c-1,1.3-2.3,2.4-3.9,3.1C164.9,37,163.2,37.3,161.4,37.3z
		 M161.8,35.6c1.6,0,3.2-0.3,4.5-0.9c1.4-0.6,2.4-1.4,3.2-2.5c0.5-0.6,0.7-1.2,0.7-1.7v-3.9c-1-0.4-2.1-0.7-3.2-0.9
		s-2.3-0.3-3.4-0.3c-1.1,0-2.1,0.1-3,0.4c-0.9,0.2-1.7,0.6-2.3,1c-0.7,0.4-1.2,0.9-1.5,1.6c-0.4,0.6-0.5,1.3-0.5,2s0.1,1.4,0.4,2.1
		c0.3,0.7,0.7,1.2,1.2,1.7s1.1,0.8,1.8,1.1C160.3,35.5,161,35.6,161.8,35.6z"/>
	<path class="st1" d="M189.2,16.7c-2,0.1-3.7,0.6-5.2,1.8c-1.5,1.1-2.5,2.7-3.1,4.6v13.8h-2.1V14.8h2v5.4c0.8-1.6,1.8-2.8,3-3.8
		c1.3-1,2.6-1.5,4.1-1.7c0.3,0,0.5,0,0.8,0s0.4,0,0.6,0v2H189.2z"/>
	<path class="st1" d="M209.2,36.9l-8.6-11.8l-5.2,4.8v7h-2.1v-31h2.1v21.7l13.4-12.7h2.5l-9.2,9l9.5,13.1h-2.4V36.9z"/>
	<path class="st1" d="M223.7,37.3c-1.6,0-3-0.3-4.3-0.9s-2.5-1.4-3.5-2.5s-1.7-2.3-2.3-3.7s-0.8-2.9-0.8-4.5s0.3-3,0.8-4.4
		s1.3-2.6,2.3-3.6s2.1-1.8,3.4-2.4c1.3-0.6,2.7-0.9,4.3-0.9s3,0.3,4.3,0.9s2.5,1.4,3.4,2.5c1,1,1.7,2.2,2.3,3.6
		c0.5,1.4,0.8,2.8,0.8,4.4c0,0.1,0,0.3,0,0.5s0,0.3,0,0.4H215c0.1,1.3,0.4,2.5,0.9,3.5c0.5,1.1,1.2,2,1.9,2.8
		c0.8,0.8,1.7,1.4,2.7,1.9s2.1,0.7,3.3,0.7c0.8,0,1.5-0.1,2.3-0.3c0.7-0.2,1.4-0.5,2.1-0.9s1.2-0.8,1.7-1.3s0.9-1.1,1.2-1.7l1.9,0.5
		c-0.3,0.8-0.8,1.5-1.4,2.2s-1.3,1.2-2.1,1.7c-0.8,0.5-1.7,0.9-2.7,1.1C225.7,37.2,224.7,37.3,223.7,37.3z M232.3,25
		c-0.1-1.3-0.4-2.5-0.9-3.6s-1.1-2-1.9-2.8s-1.7-1.4-2.7-1.8s-2.1-0.7-3.3-0.7s-2.3,0.2-3.3,0.7c-1,0.4-1.9,1-2.7,1.8
		s-1.4,1.7-1.9,2.8c-0.5,1.1-0.7,2.3-0.8,3.5h17.5V25z"/>
	<path class="st1" d="M248.7,35.8c-0.1,0.1-0.3,0.2-0.6,0.3c-0.3,0.2-0.6,0.3-1,0.4s-0.9,0.3-1.4,0.4s-1.1,0.2-1.7,0.2
		s-1.2-0.1-1.7-0.3c-0.5-0.2-1-0.4-1.4-0.8c-0.4-0.3-0.7-0.8-0.9-1.2c-0.2-0.5-0.3-1-0.3-1.7V16.4h-3.1v-1.7h3.1V7.1h2.1v7.6h5.1
		v1.7h-5.1v16.1c0,0.8,0.3,1.4,0.8,1.8c0.6,0.4,1.2,0.6,1.9,0.6c0.9,0,1.6-0.1,2.3-0.4c0.6-0.3,1-0.5,1.2-0.6L248.7,35.8z"/>
	<path class="st1" d="M252.5,9.8V5.9h2.1v3.9H252.5z M252.5,36.9V14.8h2.1v22.1H252.5z"/>
	<path class="st1" d="M279.3,36.9h-2.1V24.6c0-2.9-0.4-4.9-1.2-6.2s-2.1-2-3.8-2c-0.9,0-1.9,0.2-2.8,0.5s-1.8,0.8-2.6,1.4
		s-1.5,1.4-2.1,2.2c-0.6,0.8-1,1.7-1.3,2.7v13.7h-2.1V14.8h2v5.3c0.5-0.8,1-1.6,1.7-2.3s1.4-1.3,2.3-1.8c0.8-0.5,1.7-0.9,2.7-1.1
		c0.9-0.3,1.9-0.4,2.9-0.4c2.4,0,4.1,0.8,5.1,2.5s1.5,4.1,1.5,7.2v12.7H279.3z"/>
	<path class="st1" d="M294.7,37.2c-1.5,0-2.9-0.3-4.2-1c-1.3-0.6-2.4-1.5-3.3-2.5c-0.9-1.1-1.6-2.3-2.2-3.6s-0.8-2.8-0.8-4.2
		c0-1.5,0.2-2.9,0.7-4.3s1.2-2.6,2.1-3.7s2-1.9,3.3-2.5s2.7-0.9,4.2-0.9c1.9,0,3.6,0.5,5,1.5s2.6,2.2,3.6,3.7v-4.8h2v22.4
		c0,1.5-0.3,2.8-0.8,4c-0.6,1.1-1.3,2.1-2.3,2.8c-0.9,0.8-2.1,1.3-3.3,1.7c-1.3,0.4-2.6,0.6-4,0.6c-1.3,0-2.4-0.1-3.4-0.4
		c-1-0.2-1.9-0.6-2.7-1c-0.8-0.4-1.5-1-2.1-1.6s-1.1-1.3-1.6-2.1l1.4-1c0.9,1.5,2.1,2.6,3.6,3.3c1.5,0.7,3.1,1,4.8,1
		c1.1,0,2.2-0.2,3.2-0.5s1.9-0.8,2.6-1.4c0.8-0.6,1.3-1.4,1.8-2.3c0.4-0.9,0.7-2,0.7-3.2v-4.8c-0.9,1.4-2.1,2.6-3.6,3.5
		C297.9,36.8,296.3,37.2,294.7,37.2z M295.2,35.4c0.9,0,1.8-0.2,2.7-0.5c0.9-0.4,1.7-0.8,2.4-1.4c0.7-0.6,1.3-1.2,1.8-1.9
		s0.8-1.4,0.9-2.1v-7.3c-0.3-0.8-0.8-1.6-1.4-2.4c-0.6-0.7-1.2-1.3-1.9-1.8s-1.5-0.9-2.3-1.2c-0.8-0.3-1.7-0.4-2.5-0.4
		c-1.3,0-2.5,0.3-3.6,0.8c-1,0.6-1.9,1.3-2.7,2.2s-1.3,1.9-1.7,3.1c-0.4,1.1-0.6,2.3-0.6,3.5c0,1.3,0.2,2.5,0.7,3.6s1.1,2.1,1.9,3
		s1.7,1.6,2.8,2.1S294,35.4,295.2,35.4z"/>
	<path class="st1" d="M328.1,37.3c-1,0-2-0.2-2.8-0.5c-0.9-0.4-1.7-0.8-2.3-1.4c-0.7-0.6-1.2-1.3-1.5-2.2c-0.4-0.8-0.6-1.7-0.6-2.7
		s0.2-1.8,0.7-2.6c0.5-0.8,1.1-1.5,1.9-2.1s1.8-1,2.9-1.4c1.1-0.3,2.4-0.5,3.7-0.5c1.2,0,2.4,0.1,3.6,0.3c1.2,0.2,2.3,0.5,3.3,0.9
		v-2.2c0-2.1-0.6-3.8-1.8-5c-1.2-1.2-2.8-1.8-4.8-1.8c-1.1,0-2.2,0.2-3.4,0.7c-1.2,0.5-2.4,1.1-3.7,2l-0.8-1.4
		c2.8-1.9,5.5-2.9,8.1-2.9c2.7,0,4.8,0.8,6.3,2.3s2.3,3.7,2.3,6.4V34c0,0.7,0.3,1.1,0.9,1.1V37c-0.1,0-0.3,0-0.4,0.1s-0.3,0-0.4,0
		c-0.6,0-1-0.2-1.4-0.6c-0.3-0.4-0.5-0.8-0.6-1.4v-1.8c-1,1.3-2.3,2.4-3.9,3.1C331.7,37,329.9,37.3,328.1,37.3z M328.5,35.6
		c1.6,0,3.2-0.3,4.5-0.9c1.4-0.6,2.4-1.4,3.2-2.5c0.5-0.6,0.7-1.2,0.7-1.7v-3.9c-1-0.4-2.1-0.7-3.2-0.9s-2.3-0.3-3.4-0.3
		s-2.1,0.1-3,0.4c-0.9,0.2-1.7,0.6-2.3,1c-0.7,0.4-1.2,0.9-1.5,1.6c-0.4,0.6-0.5,1.3-0.5,2s0.1,1.4,0.4,2.1s0.7,1.2,1.2,1.7
		s1.1,0.8,1.8,1.1C327,35.5,327.7,35.6,328.5,35.6z"/>
	<path class="st1" d="M352.5,37.3c-1.7,0-3.3-0.3-4.9-0.8c-1.6-0.6-2.9-1.4-4.1-2.5l1.1-1.4c1.2,1.1,2.4,1.9,3.7,2.4
		c1.3,0.5,2.7,0.8,4.2,0.8c1.9,0,3.5-0.4,4.7-1.2c1.2-0.8,1.8-1.9,1.8-3.4c0-0.7-0.1-1.3-0.4-1.7c-0.3-0.5-0.7-0.9-1.3-1.2
		c-0.6-0.3-1.3-0.6-2.2-0.9c-0.9-0.3-1.9-0.5-3.1-0.8s-2.3-0.6-3.2-0.8s-1.7-0.6-2.3-1c-0.6-0.4-1-0.9-1.3-1.4
		c-0.3-0.6-0.4-1.3-0.4-2.2c0-1.1,0.2-2.1,0.6-2.9s1-1.5,1.8-2s1.6-0.9,2.6-1.2c1-0.3,2-0.4,3.1-0.4c1.7,0,3.3,0.3,4.6,0.9
		c1.3,0.6,2.4,1.3,3.1,2.2l-1.2,1.1c-0.7-0.8-1.7-1.5-2.9-1.9s-2.4-0.6-3.8-0.6c-0.8,0-1.6,0.1-2.3,0.3c-0.7,0.2-1.4,0.4-1.9,0.8
		s-1,0.8-1.3,1.4s-0.5,1.3-0.5,2.1c0,0.7,0.1,1.2,0.3,1.6s0.6,0.7,1,1s1.1,0.5,1.8,0.7c0.7,0.2,1.6,0.4,2.6,0.7
		c1.4,0.3,2.6,0.7,3.7,1s2,0.7,2.7,1.1c0.7,0.5,1.3,1,1.7,1.6c0.4,0.6,0.6,1.4,0.6,2.4c0,2-0.8,3.6-2.3,4.7
		C357.1,36.7,355.1,37.3,352.5,37.3z"/>
	<path class="st1" d="M372.9,37.3c-1.7,0-3.3-0.3-4.9-0.8c-1.6-0.6-2.9-1.4-4.1-2.5l1.1-1.4c1.2,1.1,2.4,1.9,3.7,2.4
		s2.7,0.8,4.2,0.8c1.9,0,3.5-0.4,4.7-1.2c1.2-0.8,1.8-1.9,1.8-3.4c0-0.7-0.1-1.3-0.4-1.7c-0.3-0.5-0.7-0.9-1.3-1.2
		c-0.6-0.3-1.3-0.6-2.2-0.9c-0.9-0.3-1.9-0.5-3.1-0.8s-2.3-0.6-3.3-0.8s-1.7-0.6-2.3-1c-0.6-0.4-1-0.9-1.3-1.4
		c-0.3-0.6-0.4-1.3-0.4-2.2c0-1.1,0.2-2.1,0.6-2.9s1-1.5,1.8-2s1.6-0.9,2.6-1.2c1-0.3,2-0.4,3.1-0.4c1.7,0,3.3,0.3,4.6,0.9
		c1.3,0.6,2.4,1.3,3.1,2.2l-1.2,1.1c-0.7-0.8-1.7-1.5-2.9-1.9c-1.2-0.4-2.4-0.6-3.8-0.6c-0.8,0-1.6,0.1-2.3,0.3s-1.4,0.4-1.9,0.8
		s-1,0.8-1.3,1.4S367,20.2,367,21c0,0.7,0.1,1.2,0.3,1.6s0.6,0.7,1,1s1.1,0.5,1.8,0.7c0.7,0.2,1.6,0.4,2.6,0.7
		c1.4,0.3,2.6,0.7,3.7,1s2,0.7,2.7,1.1c0.7,0.5,1.3,1,1.7,1.6c0.4,0.6,0.6,1.4,0.6,2.4c0,2-0.8,3.6-2.3,4.7
		C377.6,36.7,375.5,37.3,372.9,37.3z"/>
	<path class="st1" d="M395.6,37.3c-1.6,0-3-0.3-4.3-0.9s-2.5-1.4-3.4-2.5s-1.7-2.3-2.3-3.7c-0.5-1.4-0.8-2.8-0.8-4.4s0.3-3,0.8-4.4
		c0.6-1.4,1.3-2.6,2.3-3.7s2.1-1.9,3.4-2.5s2.7-0.9,4.3-0.9s2.9,0.3,4.2,0.9c1.3,0.6,2.4,1.4,3.4,2.5c1,1,1.7,2.3,2.3,3.7
		c0.6,1.4,0.8,2.9,0.8,4.4s-0.3,3-0.8,4.4c-0.6,1.4-1.3,2.6-2.3,3.7s-2.1,1.9-3.4,2.5C398.6,37,397.1,37.3,395.6,37.3z M386.9,26
		c0,1.3,0.2,2.5,0.7,3.7c0.5,1.1,1.1,2.1,1.8,3c0.8,0.9,1.7,1.5,2.7,2s2.2,0.7,3.4,0.7s2.3-0.2,3.4-0.7c1-0.5,2-1.2,2.8-2.1
		s1.4-1.9,1.9-3s0.7-2.4,0.7-3.7c0-1.3-0.2-2.5-0.7-3.7c-0.5-1.1-1.1-2.2-1.9-3c-0.8-0.9-1.7-1.6-2.7-2.1s-2.1-0.8-3.3-0.8
		s-2.3,0.3-3.4,0.8c-1,0.5-2,1.2-2.7,2.1s-1.4,1.9-1.9,3.1C387.2,23.4,386.9,24.7,386.9,26z"/>
	<path class="st1" d="M410,25.8c0-1.6,0.3-3,0.8-4.4s1.3-2.6,2.3-3.6s2.1-1.8,3.4-2.4s2.8-0.9,4.4-0.9c2,0,3.8,0.5,5.3,1.4
		s2.7,2.2,3.4,3.8l-2.1,0.7c-0.7-1.2-1.6-2.2-2.8-2.9c-1.2-0.7-2.5-1-4-1c-1.2,0-2.4,0.2-3.4,0.7s-2,1.1-2.7,2s-1.4,1.8-1.8,3
		c-0.5,1.1-0.7,2.4-0.7,3.7s0.2,2.6,0.7,3.8c0.5,1.2,1.1,2.2,1.9,3.1s1.7,1.6,2.8,2.1c1.1,0.5,2.2,0.8,3.4,0.8
		c0.8,0,1.5-0.1,2.3-0.3c0.8-0.2,1.4-0.5,2.1-0.9c0.6-0.4,1.2-0.8,1.7-1.3s0.8-1,1-1.6l2.1,0.6c-0.3,0.8-0.7,1.5-1.3,2.1
		c-0.6,0.7-1.3,1.2-2.1,1.7s-1.7,0.9-2.6,1.1c-1,0.3-2,0.4-3,0.4c-1.6,0-3-0.3-4.3-0.9s-2.5-1.4-3.5-2.5s-1.7-2.3-2.3-3.7
		C410.3,28.8,410,27.3,410,25.8z"/>
	<path class="st1" d="M434.7,9.8V5.9h2.1v3.9H434.7z M434.7,36.9V14.8h2.1v22.1H434.7z"/>
	<path class="st1" d="M448.9,37.3c-1,0-2-0.2-2.8-0.5c-0.9-0.4-1.7-0.8-2.3-1.4c-0.7-0.6-1.2-1.3-1.6-2.2c-0.4-0.8-0.6-1.7-0.6-2.7
		s0.2-1.8,0.7-2.6c0.5-0.8,1.1-1.5,1.9-2.1s1.8-1,2.9-1.4c1.1-0.3,2.4-0.5,3.7-0.5c1.2,0,2.4,0.1,3.6,0.3c1.2,0.2,2.3,0.5,3.2,0.9
		v-2.2c0-2.1-0.6-3.8-1.8-5c-1.2-1.2-2.8-1.8-4.8-1.8c-1.1,0-2.2,0.2-3.4,0.7c-1.2,0.5-2.4,1.1-3.7,2l-0.7-1.5
		c2.8-1.9,5.5-2.9,8.1-2.9c2.7,0,4.8,0.8,6.3,2.3s2.3,3.7,2.3,6.4v10.8c0,0.7,0.3,1.1,0.9,1.1v1.9c-0.1,0-0.3,0-0.4,0.1
		c-0.2,0-0.3,0-0.4,0c-0.6,0-1-0.2-1.4-0.6c-0.3-0.4-0.5-0.8-0.6-1.4v-1.8c-1,1.3-2.3,2.4-3.9,3.1C452.4,37,450.7,37.3,448.9,37.3z
		 M449.3,35.6c1.6,0,3.2-0.3,4.5-0.9c1.4-0.6,2.4-1.4,3.2-2.5c0.5-0.6,0.7-1.2,0.7-1.7v-3.9c-1-0.4-2.1-0.7-3.2-0.9
		s-2.3-0.3-3.4-0.3s-2.1,0.1-3,0.4c-0.9,0.2-1.7,0.6-2.3,1s-1.2,0.9-1.5,1.6c-0.4,0.6-0.5,1.3-0.5,2s0.1,1.4,0.4,2.1
		s0.7,1.2,1.2,1.7s1.1,0.8,1.8,1.1S448.5,35.6,449.3,35.6z"/>
	<path class="st1" d="M476,35.8c-0.1,0.1-0.3,0.2-0.6,0.3c-0.3,0.2-0.6,0.3-1,0.4s-0.9,0.3-1.4,0.4s-1.1,0.2-1.7,0.2
		s-1.2-0.1-1.7-0.3c-0.5-0.2-1-0.4-1.4-0.8s-0.7-0.8-0.9-1.2c-0.2-0.5-0.3-1-0.3-1.7V16.4h-3.1v-1.7h3.1V7.1h2.1v7.6h5.1v1.7h-5.1
		v16.1c0,0.8,0.3,1.4,0.8,1.8c0.6,0.4,1.2,0.6,1.9,0.6c0.9,0,1.6-0.1,2.3-0.4c0.6-0.3,1-0.5,1.2-0.6L476,35.8z"/>
	<path class="st1" d="M488.5,37.3c-1.6,0-3-0.3-4.3-0.9s-2.5-1.4-3.5-2.5s-1.7-2.3-2.3-3.7c-0.6-1.4-0.8-2.9-0.8-4.5s0.3-3,0.8-4.4
		c0.6-1.4,1.3-2.6,2.3-3.6s2.1-1.8,3.4-2.4c1.3-0.6,2.7-0.9,4.3-0.9s3,0.3,4.3,0.9s2.5,1.4,3.4,2.5c1,1,1.7,2.2,2.3,3.6
		c0.5,1.4,0.8,2.8,0.8,4.4c0,0.1,0,0.3,0,0.5s0,0.3,0,0.4h-19.4c0.1,1.3,0.4,2.5,0.9,3.5c0.5,1.1,1.2,2,1.9,2.8
		c0.8,0.8,1.7,1.4,2.7,1.9s2.1,0.7,3.3,0.7c0.8,0,1.5-0.1,2.3-0.3c0.7-0.2,1.4-0.5,2.1-0.9s1.2-0.8,1.7-1.3s0.9-1.1,1.2-1.7l1.9,0.5
		c-0.3,0.8-0.8,1.5-1.4,2.2c-0.6,0.7-1.3,1.2-2.1,1.7s-1.7,0.9-2.7,1.1C490.5,37.2,489.6,37.3,488.5,37.3z M497.2,25
		c-0.1-1.3-0.4-2.5-0.9-3.6s-1.1-2-1.9-2.8c-0.8-0.8-1.7-1.4-2.7-1.8s-2.1-0.7-3.3-0.7s-2.3,0.2-3.3,0.7s-1.9,1-2.7,1.8
		c-0.8,0.8-1.4,1.7-1.9,2.8c-0.5,1.1-0.7,2.3-0.8,3.5h17.5V25z"/>
	<path class="st1" d="M510.9,37.3c-1.7,0-3.3-0.3-4.9-0.8s-2.9-1.4-4.1-2.5l1.1-1.4c1.2,1.1,2.4,1.9,3.7,2.4s2.7,0.8,4.2,0.8
		c1.9,0,3.5-0.4,4.7-1.2s1.8-1.9,1.8-3.4c0-0.7-0.1-1.3-0.4-1.7c-0.3-0.5-0.7-0.9-1.3-1.2c-0.6-0.3-1.3-0.6-2.2-0.9
		s-1.9-0.5-3.1-0.8c-1.2-0.3-2.3-0.6-3.2-0.8c-0.9-0.3-1.7-0.6-2.3-1s-1-0.9-1.3-1.4c-0.3-0.6-0.4-1.3-0.4-2.2
		c0-1.1,0.2-2.1,0.6-2.9c0.4-0.8,1-1.5,1.8-2s1.6-0.9,2.6-1.2c1-0.3,2-0.4,3.1-0.4c1.7,0,3.3,0.3,4.6,0.9s2.4,1.3,3.1,2.2l-1.2,1.1
		c-0.7-0.8-1.7-1.5-2.9-1.9s-2.4-0.6-3.8-0.6c-0.8,0-1.6,0.1-2.3,0.3c-0.7,0.2-1.4,0.4-1.9,0.8s-1,0.8-1.3,1.4s-0.5,1.3-0.5,2.1
		c0,0.7,0.1,1.2,0.3,1.6s0.6,0.7,1,1c0.5,0.3,1.1,0.5,1.8,0.7s1.6,0.4,2.6,0.7c1.4,0.3,2.6,0.7,3.7,1c1.1,0.3,2,0.7,2.7,1.1
		c0.7,0.5,1.3,1,1.7,1.6s0.6,1.4,0.6,2.4c0,2-0.8,3.6-2.3,4.7C515.6,36.7,513.5,37.3,510.9,37.3z"/>
</g>
<g>
	<path class="st1" d="M94.7,0L77.5,51.5h-1.7L93,0L94.7,0L94.7,0z"/>
	<path class="st1" d="M107.5,0L90.2,51.5h-1.7L105.7,0L107.5,0L107.5,0z"/>
</g>
</svg>
